<svg width="112" height="24" viewBox="0 0 112 24" fill="none" xmlns="http://www.w3.org/2000/svg">
    <path
        d="M0 2C0 0.89543 0.895431 0 2 0H10C11.1046 0 12 0.895431 12 2V4C12 4.55228 11.5523 5 11 5H1C0.447715 5 0 4.55228 0 4V2Z"
        fill="#0F0F0F"></path>
    <path
        d="M12 20C12 19.4477 12.4477 19 13 19H23C23.5523 19 24 19.4477 24 20V22C24 23.1046 23.1046 24 22 24H14C12.8954 24 12 23.1046 12 22V20Z"
        fill="#0F0F0F"></path>
    <path
        d="M0 8.5C0 7.94772 0.447715 7.5 1 7.5H22C23.1046 7.5 24 8.39543 24 9.5V15.5C24 16.0523 23.5523 16.5 23 16.5H2C0.89543 16.5 0 15.6046 0 14.5V8.5Z"
        fill="#0F0F0F"></path>
    <path
        d="M37.326 14.741H39.6376L43.9745 22H49.2305L44.4257 14.2456C47.0675 13.3375 48.6085 11.3012 48.6085 8.35672C48.6085 4.22898 45.7191 2 41.0685 2H32.7305V22H37.326V14.741ZM37.326 10.9985V5.88008H40.8208C42.9948 5.88008 44.0955 6.8157 44.0955 8.43928C44.0955 10.0353 42.9948 10.9985 40.8208 10.9985H37.326Z"
        fill="#0F0F0F" class="letter"></path>
    <path
        d="M57.0936 22.0608C59.983 22.0608 62.6248 20.6024 63.698 17.823L60.0105 16.6397C59.5977 17.9056 58.5245 18.566 57.1486 18.566C55.47 18.566 54.2867 17.4378 53.984 15.4564H63.808V14.3007C63.808 10.2004 61.4139 6.95329 57.011 6.95329C52.8282 6.95329 49.7462 10.2004 49.7462 14.4933C49.7462 19.0063 52.7182 22.0608 57.0936 22.0608ZM56.956 10.3656C58.5796 10.3656 59.4326 11.4663 59.4602 12.7596H54.1216C54.5619 11.1636 55.6076 10.3656 56.956 10.3656Z"
        fill="#0F0F0F" class="letter"></path>
    <path
        d="M66.3036 18C66.3036 20.972 67.8721 22.0177 71.0092 22.0177C72.0549 22.0177 72.8805 21.9351 73.651 21.825V18.2201C73.1556 18.2752 72.908 18.3027 72.3851 18.3027C71.2844 18.3027 70.6515 18.0826 70.6515 16.7498V10.8884H73.4859V7.25599H70.6515V3.23832H66.3036V7.25599H64.4599V10.8884H66.3036V18Z"
        fill="#0F0F0F" class="letter"></path>
    <path
        d="M89.3752 14.46C89.3752 9.947 86.3757 6.89247 82.1104 6.89247C77.8175 6.89247 74.8455 9.947 74.8455 14.46C74.8455 18.973 77.8175 22 82.1104 22C86.3757 22 89.3752 18.973 89.3752 14.46ZM79.2209 14.46C79.2209 11.9283 80.3492 10.4974 82.1104 10.4974C83.8715 10.4974 84.9998 11.9283 84.9998 14.46C84.9998 16.9917 83.8715 18.4226 82.1104 18.4226C80.3492 18.4226 79.2209 16.9917 79.2209 14.46Z"
        fill="#0F0F0F" class="letter"></path>
    <path
        d="M105.23 14.46C105.23 9.947 102.231 6.89247 97.9656 6.89247C93.6727 6.89247 90.7008 9.947 90.7008 14.46C90.7008 18.973 93.6727 22 97.9656 22C102.231 22 105.23 18.973 105.23 14.46ZM95.0762 14.46C95.0762 11.9283 96.2044 10.4974 97.9656 10.4974C99.7268 10.4974 100.855 11.9283 100.855 14.46C100.855 16.9917 99.7268 18.4226 97.9656 18.4226C96.2044 18.4226 95.0762 16.9917 95.0762 14.46Z"
        fill="#0F0F0F" class="letter"></path>
    <path d="M111.73 2H107.328V22H111.73V2Z" fill="#0F0F0F" class="letter"></path>
</svg>